<mxfile host="app.diagrams.net" modified="2023-05-26T11:59:51.649Z" agent="Mozilla/5.0 (Windows NT 10.0; Win64; x64) AppleWebKit/537.36 (KHTML, like Gecko) Chrome/112.0.0.0 Safari/537.36 OPR/98.0.0.0" etag="GFU4w03YWz0Fhq6r0J59" version="21.2.9" type="device">
  <diagram id="B6hxKXUuxW_bQRtnd0Nd" name="Page-1">
    <mxGraphModel dx="1009" dy="550" grid="1" gridSize="10" guides="1" tooltips="1" connect="1" arrows="1" fold="1" page="1" pageScale="1" pageWidth="827" pageHeight="1169" math="0" shadow="0">
      <root>
        <mxCell id="0" />
        <mxCell id="1" parent="0" />
        <mxCell id="qeF7a1N1rfJiw4O3Gbkl-33" style="edgeStyle=orthogonalEdgeStyle;rounded=0;orthogonalLoop=1;jettySize=auto;html=1;exitX=0.5;exitY=1;exitDx=0;exitDy=0;entryX=0.5;entryY=0;entryDx=0;entryDy=0;entryPerimeter=0;endArrow=none;endFill=0;" parent="1" source="-z8G4WyMz3Rr6xbmnv1U-8" target="kNP4vPVfDRejxjYC4Ont-6" edge="1">
          <mxGeometry relative="1" as="geometry">
            <mxPoint x="570" y="480" as="sourcePoint" />
          </mxGeometry>
        </mxCell>
        <mxCell id="kNP4vPVfDRejxjYC4Ont-6" value="Отображение задачи &lt;br&gt;&lt;div&gt;&lt;span&gt;в окне задач&lt;/span&gt;&lt;/div&gt;" style="strokeWidth=1;html=1;shape=mxgraph.flowchart.display;whiteSpace=wrap;align=center;" parent="1" vertex="1">
          <mxGeometry x="510" y="400" width="120" height="80" as="geometry" />
        </mxCell>
        <mxCell id="z2_UE_KUAXprEUgmVMjb-5" style="edgeStyle=orthogonalEdgeStyle;rounded=0;orthogonalLoop=1;jettySize=auto;html=1;endArrow=none;endFill=0;" edge="1" parent="1" source="kNP4vPVfDRejxjYC4Ont-8" target="kNP4vPVfDRejxjYC4Ont-11">
          <mxGeometry relative="1" as="geometry" />
        </mxCell>
        <mxCell id="kNP4vPVfDRejxjYC4Ont-8" value="Получение расписание группы из базы данных" style="rounded=0;whiteSpace=wrap;html=1;strokeWidth=1;" parent="1" vertex="1">
          <mxGeometry x="680" y="540" width="120" height="80" as="geometry" />
        </mxCell>
        <mxCell id="kNP4vPVfDRejxjYC4Ont-11" value="&amp;nbsp; &amp;nbsp; &amp;nbsp; Отображение&amp;nbsp; &amp;nbsp; &amp;nbsp;расписания группы&amp;nbsp; &amp;nbsp; &amp;nbsp; в окне &lt;br&gt;расписания" style="strokeWidth=1;html=1;shape=mxgraph.flowchart.display;whiteSpace=wrap;" parent="1" vertex="1">
          <mxGeometry x="830" y="540" width="120" height="80" as="geometry" />
        </mxCell>
        <mxCell id="kNP4vPVfDRejxjYC4Ont-18" style="edgeStyle=orthogonalEdgeStyle;rounded=0;orthogonalLoop=1;jettySize=auto;html=1;exitX=0.5;exitY=1;exitDx=0;exitDy=0;endArrow=none;endFill=0;" parent="1" source="kNP4vPVfDRejxjYC4Ont-14" target="kNP4vPVfDRejxjYC4Ont-16" edge="1">
          <mxGeometry relative="1" as="geometry" />
        </mxCell>
        <mxCell id="-z8G4WyMz3Rr6xbmnv1U-16" style="edgeStyle=orthogonalEdgeStyle;rounded=0;orthogonalLoop=1;jettySize=auto;html=1;exitX=0;exitY=0.5;exitDx=0;exitDy=0;endArrow=none;endFill=0;" parent="1" source="kNP4vPVfDRejxjYC4Ont-14" edge="1">
          <mxGeometry relative="1" as="geometry">
            <mxPoint x="750" y="360" as="targetPoint" />
          </mxGeometry>
        </mxCell>
        <mxCell id="kNP4vPVfDRejxjYC4Ont-14" value="Вычисление расписания преподавателя" style="rounded=0;whiteSpace=wrap;html=1;strokeWidth=1;" parent="1" vertex="1">
          <mxGeometry x="830" y="320" width="120" height="80" as="geometry" />
        </mxCell>
        <mxCell id="kNP4vPVfDRejxjYC4Ont-16" value="&amp;nbsp; &amp;nbsp; &amp;nbsp; &amp;nbsp; Отображение&amp;nbsp; &amp;nbsp; &amp;nbsp; &amp;nbsp; &amp;nbsp; &amp;nbsp; расписания&amp;nbsp; &amp;nbsp; &amp;nbsp; &amp;nbsp; &amp;nbsp; &amp;nbsp;преподавателя в&amp;nbsp; &amp;nbsp; &amp;nbsp; &amp;nbsp; окне расписания" style="strokeWidth=1;html=1;shape=mxgraph.flowchart.display;whiteSpace=wrap;" parent="1" vertex="1">
          <mxGeometry x="830" y="420" width="120" height="80" as="geometry" />
        </mxCell>
        <mxCell id="z2_UE_KUAXprEUgmVMjb-1" style="edgeStyle=orthogonalEdgeStyle;rounded=0;orthogonalLoop=1;jettySize=auto;html=1;endArrow=none;endFill=0;" edge="1" parent="1" source="qeF7a1N1rfJiw4O3Gbkl-4" target="kNP4vPVfDRejxjYC4Ont-14">
          <mxGeometry relative="1" as="geometry" />
        </mxCell>
        <mxCell id="qeF7a1N1rfJiw4O3Gbkl-4" value="&lt;br&gt;&lt;br&gt;Ввод ФИО преподавателя" style="shape=manualInput;whiteSpace=wrap;html=1;" parent="1" vertex="1">
          <mxGeometry x="830" y="220" width="120" height="80" as="geometry" />
        </mxCell>
        <mxCell id="-z8G4WyMz3Rr6xbmnv1U-11" style="edgeStyle=orthogonalEdgeStyle;rounded=0;orthogonalLoop=1;jettySize=auto;html=1;entryX=0.5;entryY=0;entryDx=0;entryDy=0;endArrow=none;endFill=0;exitX=0.5;exitY=1;exitDx=0;exitDy=0;" parent="1" source="qeF7a1N1rfJiw4O3Gbkl-5" target="-z8G4WyMz3Rr6xbmnv1U-8" edge="1">
          <mxGeometry relative="1" as="geometry">
            <mxPoint x="570" y="330" as="sourcePoint" />
          </mxGeometry>
        </mxCell>
        <mxCell id="z2_UE_KUAXprEUgmVMjb-2" style="edgeStyle=orthogonalEdgeStyle;rounded=0;orthogonalLoop=1;jettySize=auto;html=1;entryX=0;entryY=0.5;entryDx=0;entryDy=0;endArrow=none;endFill=0;" edge="1" parent="1" source="-z8G4WyMz3Rr6xbmnv1U-8" target="kNP4vPVfDRejxjYC4Ont-9">
          <mxGeometry relative="1" as="geometry" />
        </mxCell>
        <mxCell id="-z8G4WyMz3Rr6xbmnv1U-8" value="Обработка введенных данных" style="rounded=0;whiteSpace=wrap;html=1;" parent="1" vertex="1">
          <mxGeometry x="510" y="330" width="120" height="60" as="geometry" />
        </mxCell>
        <mxCell id="qeF7a1N1rfJiw4O3Gbkl-5" value="&lt;br&gt;Ввод задачи" style="shape=manualInput;whiteSpace=wrap;html=1;" parent="1" vertex="1">
          <mxGeometry x="510" y="240" width="120" height="80" as="geometry" />
        </mxCell>
        <mxCell id="z2_UE_KUAXprEUgmVMjb-6" style="edgeStyle=orthogonalEdgeStyle;rounded=0;orthogonalLoop=1;jettySize=auto;html=1;entryX=0.5;entryY=0;entryDx=0;entryDy=0;endArrow=none;endFill=0;" edge="1" parent="1" source="kNP4vPVfDRejxjYC4Ont-9" target="kNP4vPVfDRejxjYC4Ont-8">
          <mxGeometry relative="1" as="geometry" />
        </mxCell>
        <mxCell id="kNP4vPVfDRejxjYC4Ont-9" value="Локальная база данных" style="shape=dataStorage;whiteSpace=wrap;html=1;" parent="1" vertex="1">
          <mxGeometry x="680" y="320" width="120" height="80" as="geometry" />
        </mxCell>
        <mxCell id="z2_UE_KUAXprEUgmVMjb-4" style="edgeStyle=orthogonalEdgeStyle;rounded=0;orthogonalLoop=1;jettySize=auto;html=1;exitX=1;exitY=0.5;exitDx=0;exitDy=0;entryX=0;entryY=0.5;entryDx=0;entryDy=0;endArrow=none;endFill=0;" edge="1" parent="1" source="z2_UE_KUAXprEUgmVMjb-3" target="kNP4vPVfDRejxjYC4Ont-8">
          <mxGeometry relative="1" as="geometry" />
        </mxCell>
        <mxCell id="z2_UE_KUAXprEUgmVMjb-3" value="&lt;br&gt;&lt;br&gt;Ввод группы" style="shape=manualInput;whiteSpace=wrap;html=1;" vertex="1" parent="1">
          <mxGeometry x="530" y="540" width="120" height="80" as="geometry" />
        </mxCell>
      </root>
    </mxGraphModel>
  </diagram>
</mxfile>
